# xmcd CD database file
#
# Track frame offsets:
#	150
#	20379
#	40939
#	61370
#	81350
#	104060
#	120842
#	141999
#	155938
#	173515
#	192887
#	210473
#
# Disc length: 3127 seconds
#
# Revision: 2
# Processed by: cddbd v1.4PL0 Copyright (c) Steve Scherf et al.
# Submitted via: CDex 1.50Beta6
#
DISCID=a30c350c
DTITLE=Sammy Rimington, Walter's Jazzmen - Jazz with Heart
DYEAR=1998
DGENRE=Jazz
TTITLE0=Don't swetheart me
TTITLE1=Never The Less
TTITLE2=Everywhere You Go
TTITLE3=What A Friend We Have In Jesus
TTITLE4=I Want To Be Happy
TTITLE5=Big Jim
TTITLE6=Then I'll Be Happy
TTITLE7=Abide With Me
TTITLE8=Rocj Of Ages
TTITLE9=Only A Look
TTITLE10=Hold Me
TTITLE11=Right Or Wrong I Love You
EXTD=YEAR: 1998
EXTT0=
EXTT1=
EXTT2=
EXTT3=
EXTT4=
EXTT5=
EXTT6=
EXTT7=
EXTT8=
EXTT9=
EXTT10=
EXTT11=
PLAYORDER=
